<svg width="63" height="66" viewBox="0 0 63 66" fill="none" xmlns="http://www.w3.org/2000/svg">
<g clip-path="url(#clip0_13_24)">
<path d="M63 20.7007C63 36.9853 51.1875 47.5657 32.7251 47.5657H20.4751L17.325 64.4024H0L12.25 0H38.1501C54.0749 0 63 7.6363 63 20.7007ZM45.4999 22.2648C45.4999 16.8367 41.9125 14.3525 35.875 14.3525H26.775L23.1876 33.2133H33.5125C41.1251 33.2133 45.4999 29.3491 45.4999 22.2648Z" fill="#001489"/>
<mask id="mask0_13_24" style="mask-type:luminance" maskUnits="userSpaceOnUse" x="17" y="41" width="40" height="25">
<path d="M56.4862 41.5736C56.4862 41.5736 48.6666 48.7105 35.991 48.763L21.2134 48.6219L17.933 65.4569L49.1444 66" fill="white"/>
</mask>
<g mask="url(#mask0_13_24)">
<path d="M19.3993 64.4024L22.2971 48.8155H28.5121L25.9961 64.4024H19.3993Z" fill="#001489"/>
<path d="M27.6904 64.4024L30.2595 48.8155H35.4933L32.9242 64.4024H27.6904Z" fill="#001489"/>
<path d="M34.592 64.4024L37.1713 48.7536L39.9186 48.3787L41.203 48.2035L38.6685 64.4024H34.592Z" fill="#001489"/>
<path d="M45.4416 47.0916L42.8513 64.4956H40.3277L42.8847 47.7061" fill="#001489"/>
<path d="M48.3553 46.3667L45.6004 64.5085H44.3068L47.0081 46.7712" fill="#001489"/>
</g>
</g>
<defs>
<clipPath id="clip0_13_24">
<rect width="63" height="66" fill="white"/>
</clipPath>
</defs>
</svg>
